<svg xmlns="http://www.w3.org/2000/svg" xmlns:svg="http://www.w3.org/2000/svg" version="1.1" preserveAspectRatio="xMidYMid meet" viewBox="0 0 6.22 3.39"><path fill="#fff" d="M6.22,2.4c-.06.13-.14.25-.23.37s-.19.22-.3.32-.23.16-.36.22c-.13.05-.28.08-.43.08-.22,0-.4-.07-.54-.22s-.25-.34-.34-.58c-.09-.24-.16-.51-.21-.81-.05-.3-.09-.61-.13-.92-.08.15-.16.3-.23.45-.07.16-.13.32-.2.5s-.13.35-.19.54-.13.37-.21.57c-.02.04-.04.09-.06.14-.02.05-.05.1-.08.15-.04.05-.07.09-.12.12s-.1.05-.16.05c-.05,0-.09-.01-.12-.03s-.07-.05-.09-.08c-.03-.03-.05-.06-.07-.1-.02-.04-.04-.07-.05-.1-.07-.16-.13-.32-.17-.49s-.08-.34-.11-.52-.05-.37-.08-.56-.04-.41-.06-.63c-.07.17-.14.34-.2.5-.06.16-.12.32-.17.48s-.11.32-.16.49c-.06.17-.11.35-.17.54-.01.05-.03.1-.05.15-.01.05-.04.1-.06.14-.02.04-.05.08-.09.11-.04.03-.08.04-.14.04-.09,0-.16-.03-.2-.09-.04-.06-.08-.13-.11-.21-.04-.11-.08-.25-.12-.44s-.07-.4-.11-.62-.06-.45-.07-.69-.03-.46-.03-.66S.05.24.16.14s.25-.14.42-.14h.05s.04,0,.06,0c.02,0,.04.01.05.02.02.01.02.02.02.04-.03.25-.05.48-.06.71s-.01.44-.01.65c0,.21.01.42.03.62s.05.41.08.62c.06-.2.12-.4.18-.58.06-.18.12-.37.18-.55s.13-.37.21-.55c.07-.19.15-.38.24-.59.05-.11.09-.18.15-.22.05-.04.12-.06.2-.06.1,0,.18.04.24.12.06.08.1.17.12.27.03.18.05.37.07.56s.04.38.07.57.05.38.09.57c.04.18.08.37.14.54.07-.18.14-.38.21-.58.07-.2.14-.4.22-.6s.15-.4.24-.6c.08-.2.17-.38.27-.55.05-.08.1-.15.16-.21.06-.05.13-.08.22-.08.05,0,.09.01.13.04s.07.05.1.09c.03.04.05.08.07.12s.03.09.04.13c.02.1.04.24.05.4.02.16.04.34.06.52.03.18.06.37.1.55.04.19.09.36.15.51s.13.27.22.37.19.14.31.14c.1,0,.2-.02.29-.05.09-.04.18-.09.26-.15.08-.06.16-.12.23-.2.07-.07.13-.15.19-.23l.03.02Z" /></svg>
